<?xml version="1.0" standalone="no"?>
<!DOCTYPE svg PUBLIC "-//W3C//DTD SVG 20010904//EN"
 "http://www.w3.org/TR/2001/REC-SVG-20010904/DTD/svg10.dtd">
<svg version="1.0" xmlns="http://www.w3.org/2000/svg"
 width="460.000000pt" height="460.000000pt" viewBox="0 0 460.000000 460.000000"
 preserveAspectRatio="xMidYMid meet">
<metadata>
Created by potrace 1.16, written by Peter Selinger 2001-2019
</metadata>
<g transform="translate(0.000000,460.000000) scale(0.100000,-0.100000)"
fill="#000000" stroke="none">
<path d="M1503 4547 c-21 -19 -46 -37 -56 -40 -15 -6 -17 -13 -12 -36 5 -23 1
-34 -16 -50 -13 -12 -27 -21 -33 -21 -5 0 -2 -6 7 -12 16 -13 20 -81 5 -103
-4 -6 -3 -17 3 -25 5 -8 9 -29 9 -47 0 -69 49 -209 75 -215 11 -2 2 -22 -36
-77 -33 -50 -46 -76 -39 -81 14 -9 -39 -50 -63 -50 -22 0 -32 -21 -16 -31 8
-4 25 -6 39 -2 19 4 15 -2 -20 -27 -68 -49 -97 -93 -42 -64 40 21 48 17 22
-11 -12 -13 -29 -35 -36 -47 -38 -67 -53 -102 -46 -107 10 -8 9 -241 -1 -241
-5 0 -6 -4 -3 -9 3 -5 -6 -21 -19 -35 -14 -15 -25 -31 -25 -37 0 -5 -4 -9 -8
-9 -5 0 -14 -12 -20 -26 -7 -14 -17 -22 -22 -19 -12 7 -13 -7 -2 -20 4 -6 14
-28 21 -50 8 -21 28 -59 46 -84 29 -39 40 -46 101 -62 38 -10 86 -19 107 -19
21 0 48 -5 59 -11 13 -7 23 -7 27 -2 12 20 39 10 39 -14 0 -18 -4 -23 -17 -17
-9 3 -35 8 -58 10 -41 4 -43 3 -44 -23 -1 -16 0 -36 0 -46 1 -9 -5 -20 -13
-23 -9 -3 -13 -10 -10 -15 3 -5 1 -9 -5 -9 -6 0 -8 -7 -5 -15 4 -8 2 -15 -4
-15 -6 0 -16 -17 -23 -37 -7 -21 -23 -55 -37 -75 -24 -37 -22 -64 4 -54 8 3
14 3 14 1 0 -8 -35 -80 -41 -85 -13 -10 -31 -52 -20 -46 6 4 11 4 11 0 0 -8
-69 -72 -83 -77 -20 -6 3 -37 27 -37 14 0 27 -4 30 -9 6 -10 4 -9 -94 13 -36
8 -83 17 -105 21 -22 3 -76 14 -120 24 -44 11 -100 22 -125 26 -25 4 -61 11
-80 15 -19 5 -75 17 -125 25 -49 9 -110 22 -135 29 -25 7 -52 11 -60 11 -8 -1
-21 -3 -27 -3 -7 -1 -13 -9 -13 -17 0 -8 -3 -15 -7 -15 -5 0 -16 -7 -27 -15
-17 -13 -15 -19 37 -127 30 -62 77 -160 103 -218 27 -58 56 -116 65 -130 9
-14 45 -79 80 -145 34 -66 67 -123 72 -126 5 -3 8 -9 8 -13 -1 -3 6 -23 15
-44 9 -20 20 -48 25 -62 6 -13 27 -46 47 -72 33 -44 40 -48 82 -49 44 -1 44
-1 12 -9 -19 -4 -39 -13 -45 -19 -20 -20 53 -13 88 9 25 15 39 18 61 11 30 -9
74 -19 204 -45 41 -8 120 -25 175 -37 55 -12 123 -25 150 -29 28 -3 66 -11 85
-17 19 -6 61 -18 93 -27 31 -9 82 -22 112 -31 30 -8 79 -21 108 -29 28 -8 70
-17 92 -20 66 -9 174 -48 178 -65 4 -12 5 -12 6 3 1 13 7 17 19 14 22 -6 44 9
61 40 9 16 19 22 32 19 13 -4 32 7 58 31 55 52 76 69 108 86 15 8 38 23 51 34
13 12 31 18 40 15 13 -4 14 -3 4 5 -10 7 -1 18 36 45 27 19 65 43 83 53 19 9
36 20 39 23 3 3 14 11 25 17 99 54 124 70 150 95 44 41 57 38 53 -13 -3 -40
-6 -44 -54 -68 -44 -22 -129 -75 -144 -90 -3 -3 -39 -27 -80 -55 -85 -57 -84
-56 -125 -91 -16 -14 -43 -35 -59 -47 -15 -12 -43 -34 -61 -50 -21 -18 -39
-25 -51 -21 -14 4 -15 3 -6 -4 10 -7 1 -19 -36 -51 -56 -46 -88 -51 -170 -27
-26 8 -69 18 -97 24 -27 5 -113 26 -189 46 -77 20 -150 36 -162 36 -13 0 -26
5 -29 11 -4 6 -13 8 -20 5 -7 -2 -16 -2 -19 1 -3 4 -23 8 -44 10 -20 2 -44 6
-52 10 -8 4 -24 7 -35 9 -52 5 -181 26 -187 30 -11 7 -191 32 -283 38 -132 10
-180 24 -191 55 -10 25 -10 25 -16 5 -3 -12 1 -36 9 -53 14 -27 21 -31 74 -37
51 -6 56 -8 43 -21 -7 -8 -14 -23 -14 -33 0 -13 -5 -17 -15 -14 -8 4 -15 1
-15 -5 0 -6 7 -11 16 -11 12 0 13 -5 8 -22 -11 -31 -12 -136 -2 -173 4 -16 16
-37 27 -45 10 -8 21 -31 24 -51 8 -56 40 -114 60 -111 9 2 17 1 17 -1 0 -2
-35 -25 -77 -52 -43 -27 -87 -58 -98 -69 -35 -35 -64 -79 -59 -87 3 -5 0 -9
-5 -9 -6 0 -11 -9 -11 -20 0 -11 -5 -20 -11 -20 -6 0 -8 -8 -4 -19 3 -10 0
-25 -7 -32 -14 -15 -10 -53 10 -105 26 -63 226 -135 380 -137 103 0 269 31
334 64 10 5 24 9 32 9 9 0 19 15 24 34 15 53 57 88 147 120 28 11 55 22 60 27
6 4 30 11 54 15 41 7 76 28 67 43 -3 4 5 15 17 26 l22 18 -27 28 c-16 15 -28
37 -28 48 0 12 -5 21 -11 21 -5 0 -7 4 -4 10 3 5 1 10 -5 10 -7 0 -10 6 -7 14
3 8 0 19 -7 25 -13 11 -26 51 -31 96 -11 90 -18 121 -28 127 -8 5 -6 8 5 8 13
0 21 -13 29 -45 6 -25 15 -48 20 -51 5 -3 9 -13 9 -22 0 -10 14 -26 30 -35 29
-18 30 -18 30 2 0 28 18 27 30 -1 15 -37 93 -115 120 -121 31 -8 82 -55 77
-70 -2 -7 -12 -14 -23 -15 -10 -2 -24 -9 -29 -16 -6 -7 -19 -16 -31 -20 -11
-3 -29 -14 -40 -24 -10 -9 -45 -36 -76 -60 -78 -60 -108 -91 -125 -131 -8 -19
-21 -41 -30 -49 -11 -11 -14 -30 -10 -73 4 -51 10 -66 48 -113 24 -31 52 -58
62 -61 10 -4 16 -9 13 -12 -7 -7 38 -43 54 -43 8 0 9 10 4 32 -11 42 -7 114 6
136 7 13 9 6 8 -28 -2 -71 15 -109 49 -110 8 0 11 11 9 30 -4 39 8 46 27 17
39 -59 55 -69 111 -73 30 -2 67 1 81 6 23 9 25 13 14 26 -12 14 -8 15 34 9 33
-5 47 -4 47 4 0 7 8 11 18 10 9 -1 30 3 46 10 15 6 33 10 40 9 22 -3 152 13
221 29 39 8 113 23 165 33 108 19 204 61 239 103 27 32 56 127 42 136 -10 7
-25 59 -24 83 0 10 -4 18 -9 18 -6 0 -8 10 -5 22 5 19 -3 75 -19 126 -2 7 -3
13 -1 15 1 1 -6 13 -16 27 -9 13 -17 37 -17 52 0 15 -11 39 -25 54 -24 26 -35
61 -16 49 5 -3 12 -1 16 5 3 6 -1 13 -9 16 -11 4 -14 14 -10 30 4 14 1 31 -6
39 -7 8 -9 15 -4 15 5 0 2 5 -6 10 -17 11 -14 11 70 15 66 2 84 -13 105 -92
11 -37 21 -75 23 -83 3 -8 6 -66 7 -127 4 -133 4 -134 15 -108 7 15 9 10 9
-24 2 -77 12 -37 12 45 0 44 0 81 -1 84 -7 26 -6 71 2 76 5 3 3 11 -5 17 -9 7
-18 27 -22 44 -5 26 -3 33 9 33 9 0 15 -8 14 -18 -1 -9 0 -25 0 -36 2 -17 5
-16 29 8 33 33 41 27 14 -11 -19 -27 -25 -44 -22 -70 2 -21 31 -2 31 20 0 11
11 35 25 53 14 18 24 37 23 42 -2 5 8 19 22 30 25 21 25 21 5 36 -11 8 -27 16
-35 16 -19 0 55 40 74 40 8 0 15 -8 15 -17 -1 -49 32 -203 43 -203 5 0 7 4 4
9 -4 5 -7 29 -7 53 -1 23 -5 61 -9 83 -5 22 -12 60 -15 85 -4 24 -8 48 -11 51
-2 4 6 10 19 14 34 11 181 33 189 29 3 -2 23 -57 43 -122 20 -64 40 -125 45
-134 6 -10 6 -19 0 -23 -5 -3 -7 -12 -4 -19 3 -7 6 -24 7 -37 1 -14 12 -38 25
-53 20 -26 29 -30 95 -33 58 -4 85 0 137 19 58 21 65 27 62 48 -2 22 -13 35
-35 42 -4 2 -8 17 -10 35 -1 17 -5 31 -10 30 -10 -3 -55 125 -49 142 3 8 0 11
-7 7 -10 -6 -15 6 -12 27 1 4 -10 38 -23 76 l-24 69 29 21 c15 11 32 21 37 21
4 0 18 9 30 20 23 22 29 50 11 50 -5 0 -8 -4 -4 -10 7 -11 -92 -70 -117 -70
-10 0 -18 -4 -18 -10 0 -5 -6 -10 -13 -10 -7 0 -48 -12 -91 -26 -67 -22 -83
-24 -103 -13 -12 7 -26 9 -30 6 -3 -4 -1 -7 5 -7 7 0 12 -4 12 -8 0 -8 -136
-33 -210 -38 -25 -1 -64 -6 -86 -9 l-42 -6 2 36 c1 19 -2 35 -6 35 -5 0 -8
-16 -8 -35 0 -19 -4 -35 -10 -35 -9 0 -14 29 -14 82 0 9 -3 15 -8 12 -4 -3 -8
2 -8 11 0 24 29 30 45 9 13 -18 14 -18 11 1 -2 16 6 23 38 33 23 8 57 15 76
16 64 5 145 18 155 26 6 4 33 10 62 14 28 4 64 13 80 21 15 8 33 15 40 15 18
0 97 36 143 65 30 19 39 29 30 35 -18 11 -5 41 15 34 12 -5 14 -2 8 12 -7 18
-6 18 11 1 9 -9 21 -17 26 -17 5 0 11 -8 13 -17 3 -10 5 -3 6 15 1 24 -3 32
-16 32 -10 1 -36 9 -58 20 -22 11 -46 19 -53 20 -7 0 -10 5 -7 10 4 7 12 7 25
0 24 -13 43 -13 35 0 -3 6 -15 10 -25 10 -17 0 -18 3 -8 25 6 14 15 25 19 25
4 0 15 20 25 44 11 25 27 47 36 50 22 5 23 -3 3 -18 -16 -12 -29 -56 -16 -56
24 0 65 81 75 150 3 19 12 59 20 88 13 48 13 52 -3 52 -14 0 -18 -9 -19 -42
-1 -24 -6 -44 -11 -46 -6 -2 -8 -9 -5 -16 3 -8 -2 -29 -10 -47 -14 -34 -14
-34 -15 -6 -1 31 -30 38 -51 12 -7 -8 -9 -15 -6 -15 4 0 2 -8 -3 -18 -5 -10
-6 -24 -1 -31 8 -14 -24 -81 -67 -137 -20 -26 -22 -27 -23 -8 0 11 7 35 16 53
9 18 13 35 10 38 -7 7 -56 -44 -56 -58 0 -19 -51 -78 -64 -73 -7 3 -19 -2 -26
-11 -7 -8 -10 -15 -6 -15 7 0 -19 -26 -49 -50 -17 -14 -18 -14 -7 7 7 12 17
23 24 26 7 2 10 7 7 11 -14 14 -60 -8 -96 -45 -33 -35 -42 -39 -70 -34 -23 4
-33 2 -33 -7 0 -9 -3 -9 -10 2 -14 22 -12 33 5 26 28 -10 16 33 -12 48 -16 8
-22 15 -15 16 7 0 21 -5 32 -12 24 -15 35 -6 22 18 -6 11 -7 27 -1 42 8 20 5
30 -12 49 -13 12 -30 23 -38 23 -9 0 -23 5 -31 11 -12 8 -9 9 13 5 20 -5 29
-2 34 9 7 19 -43 66 -102 96 -30 15 -33 19 -13 15 30 -7 45 8 28 29 -32 39
-177 74 -194 46 -3 -5 -39 -12 -79 -15 -83 -8 -111 -20 -87 -36 12 -7 12 -10
1 -10 -9 0 -11 -8 -7 -25 l7 -26 -27 18 c-16 10 -41 16 -60 14 -19 -1 -34 0
-34 2 0 3 21 15 48 27 69 32 103 67 92 95 -5 13 -6 26 -3 29 4 3 -1 6 -10 6
-26 0 -20 14 13 34 29 17 32 17 83 -2 28 -11 70 -23 92 -26 21 -4 57 -17 80
-29 34 -18 57 -21 166 -22 120 0 127 1 165 27 21 14 63 37 91 50 29 12 53 26
53 31 0 4 -34 6 -75 4 -75 -3 -98 5 -50 17 27 7 119 45 174 74 39 19 54 43 22
35 -13 -3 -21 -1 -21 7 0 7 -8 9 -22 5 -23 -6 -22 -6 2 17 14 13 26 32 27 43
8 80 15 133 20 152 3 13 1 23 -4 23 -5 0 -9 21 -7 48 1 26 -1 52 -4 57 -7 11
-7 13 -17 59 -3 16 -15 42 -26 58 -22 30 -34 104 -18 114 5 3 6 10 3 16 -4 6
-1 16 7 22 8 6 30 34 48 61 19 28 39 53 44 56 5 3 2 9 -6 12 -10 4 -34 -15
-69 -55 -29 -34 -61 -70 -70 -81 -15 -16 -18 -17 -18 -4 0 17 10 28 58 69 30
25 72 84 72 102 0 5 -7 3 -15 -4 -35 -29 -10 9 40 62 48 50 52 59 37 67 -10 6
-12 11 -4 11 17 0 15 20 -3 20 -21 0 -19 15 8 46 25 28 47 26 47 -4 0 -9 7
-26 15 -36 8 -11 15 -28 15 -38 0 -22 20 -60 38 -71 6 -4 12 -15 12 -22 0 -8
4 -15 9 -15 5 0 11 -9 14 -21 4 -16 10 -19 29 -14 13 4 24 9 26 10 4 4 -32 70
-40 73 -5 2 -8 10 -8 17 0 8 -7 20 -15 29 -9 9 -11 17 -5 21 6 4 -2 24 -20 50
-16 24 -30 48 -30 54 0 6 -4 11 -10 11 -5 0 -10 7 -10 15 0 8 -11 25 -24 38
-14 14 -22 28 -19 31 4 3 2 6 -4 6 -11 0 -38 50 -34 63 1 5 -3 24 -8 42 -6 24
-6 35 2 39 7 2 5 5 -4 5 -12 1 -14 9 -11 31 3 23 -2 36 -19 53 -26 25 -35 47
-19 47 5 0 10 -7 10 -15 0 -17 35 -20 45 -4 9 14 -21 46 -51 53 -13 4 -39 15
-57 26 l-32 20 43 0 c54 0 57 25 5 47 -40 16 -83 56 -83 76 0 7 -25 37 -55 66
-30 29 -65 70 -77 90 -11 20 -30 46 -41 59 -11 12 -17 22 -13 22 5 0 1 12 -9
26 -14 22 -15 28 -4 35 11 7 9 13 -11 29 -14 11 -28 20 -32 20 -5 0 -8 6 -8
14 0 21 -45 54 -102 73 -26 10 -48 21 -48 25 0 5 -8 8 -17 9 -11 0 -13 3 -6 6
7 2 38 -7 69 -21 71 -33 95 -35 69 -6 -21 23 -94 60 -119 60 -12 0 -16 5 -12
16 4 9 2 13 -5 8 -6 -4 -34 17 -63 48 -28 29 -64 60 -80 68 -16 8 -31 23 -34
32 -2 9 -17 21 -33 27 -33 11 -73 40 -79 56 -6 18 -34 34 -60 35 -30 0 -55 14
-47 27 3 5 -2 9 -11 10 -35 2 -98 15 -117 23 -22 10 -170 30 -255 35 -30 1
-75 -3 -100 -10 -25 -8 -65 -16 -89 -19 -43 -6 -131 -43 -131 -56 0 -12 -50
-30 -81 -30 -27 0 -59 -15 -164 -75 -30 -17 -31 -17 -80 13 -28 17 -61 33 -75
37 -14 4 -42 30 -65 62 -22 30 -47 62 -56 72 -74 73 -100 78 -156 28z m1090
-68 c42 -5 90 -14 105 -20 15 -6 28 -10 30 -10 4 2 57 -12 66 -17 11 -6 -89
-40 -120 -41 -18 -1 -89 -68 -85 -81 0 -3 -6 -30 -15 -60 -12 -40 -14 -67 -8
-99 8 -40 12 -44 54 -58 25 -9 56 -24 69 -34 13 -11 29 -19 35 -19 10 0 81
-65 149 -137 52 -55 125 -66 191 -30 66 37 79 63 78 159 -2 89 -4 112 -16 143
-28 72 -35 95 -28 95 4 0 30 -25 57 -56 28 -30 62 -62 78 -70 15 -8 27 -23 27
-33 0 -12 22 -35 56 -59 41 -29 51 -41 40 -45 -9 -4 -16 -11 -16 -17 0 -6 4
-9 9 -5 5 3 12 1 16 -5 3 -6 -4 -10 -17 -10 -23 -1 -23 -1 -3 -18 40 -36 48
-63 46 -162 0 -52 -5 -109 -10 -127 -5 -17 -7 -34 -3 -37 6 -6 -17 -57 -30
-66 -4 -3 -9 -16 -11 -29 -2 -12 -8 -26 -14 -29 -6 -4 -19 -26 -28 -50 -14
-34 -15 -45 -5 -57 10 -12 7 -16 -16 -25 -21 -8 -24 -14 -16 -22 18 -18 14
-27 -8 -21 -22 6 -25 0 -10 -26 6 -12 27 -21 62 -27 42 -6 47 -8 23 -11 -16
-2 -47 -8 -68 -15 -34 -10 -36 -13 -21 -29 11 -12 26 -16 57 -13 41 4 42 4 10
-6 -18 -6 -33 -17 -33 -25 0 -8 -8 -15 -17 -15 -15 0 -16 -2 -3 -10 8 -5 24
-7 35 -4 l20 6 -20 -15 c-16 -13 -18 -18 -8 -28 10 -10 17 -8 35 11 17 18 19
25 9 28 -19 6 45 32 80 32 19 0 29 -5 29 -15 0 -8 -9 -15 -20 -15 -11 0 -20
-4 -20 -10 0 -5 -8 -10 -18 -10 -11 0 -27 -9 -37 -20 -10 -11 -23 -20 -30 -20
-7 0 -25 -11 -41 -25 -16 -14 -42 -25 -59 -26 l-30 0 25 -10 25 -10 -30 -25
c-16 -13 -40 -24 -52 -24 -12 0 -24 -4 -27 -9 -9 -13 20 -21 54 -14 19 3 30 1
30 -6 0 -6 -7 -11 -15 -11 -8 0 -15 -4 -15 -10 0 -5 -18 -14 -39 -21 -26 -8
-38 -16 -34 -25 3 -8 -1 -14 -11 -14 -8 0 -35 -6 -58 -14 -24 -8 -69 -22 -102
-31 -62 -17 -64 -31 -6 -38 22 -2 12 -4 -27 -5 -59 -2 -80 -13 -50 -26 6 -3 1
-3 -13 1 -27 8 -80 7 -88 -2 -3 -3 3 -14 14 -26 l19 -21 -35 6 c-92 16 -132
17 -198 6 -40 -6 -74 -16 -77 -20 -6 -10 -106 -45 -117 -42 -5 1 -8 -2 -8 -7
0 -5 -7 -12 -16 -15 -15 -6 -15 -4 -3 11 21 27 51 53 61 53 4 0 35 17 68 37
43 27 61 45 66 65 3 16 10 28 14 28 5 0 7 7 4 15 -13 34 37 60 60 31 6 -8 21
-17 32 -20 54 -16 24 73 -35 101 l-36 17 -3 98 c-2 93 -1 98 16 87 25 -16 74
-5 141 29 52 27 55 30 58 73 3 32 -1 47 -12 56 -9 6 -17 15 -17 20 -3 24 -11
43 -20 43 -5 0 -6 5 -3 10 3 6 -1 13 -9 16 -9 3 -16 12 -16 19 0 7 -26 32 -57
56 -70 52 -83 64 -83 78 0 6 -4 11 -8 11 -5 0 -14 10 -21 23 -23 42 -118 80
-201 79 -41 0 -113 -29 -105 -42 3 -5 0 -12 -6 -15 -6 -4 -24 -37 -41 -73 -26
-56 -30 -77 -29 -135 2 -69 2 -69 59 -133 31 -36 68 -68 82 -71 43 -12 -47
-21 -275 -28 -232 -6 -297 -10 -368 -24 -40 -7 -46 -6 -36 5 6 8 17 14 23 13
47 -6 66 3 93 41 15 23 36 50 45 62 10 11 23 33 30 49 7 16 17 29 21 29 5 0 5
5 1 12 -4 6 -6 41 -4 77 3 75 2 105 -4 141 -6 36 -7 37 -15 16 -7 -17 -10 -15
-30 17 -20 32 -28 37 -61 37 -23 0 -45 -6 -52 -15 -7 -9 -19 -22 -26 -30 -7
-8 -16 -27 -18 -42 -3 -15 -10 -34 -17 -41 -12 -15 -18 -42 -17 -88 0 -19 -11
-47 -30 -72 -17 -24 -43 -68 -58 -100 -15 -31 -34 -62 -42 -69 -13 -11 -12
-12 6 -13 12 0 27 -7 35 -16 10 -12 24 -14 58 -10 34 4 40 3 24 -4 -33 -14
-136 -15 -161 -1 -12 6 -22 8 -22 3 0 -12 -74 -2 -82 12 -4 6 -8 25 -8 43 0
17 -5 35 -10 38 -11 7 -8 135 3 180 3 11 8 44 12 73 4 28 10 52 14 52 3 0 12
14 19 30 8 17 19 36 26 43 34 35 54 70 49 83 -3 8 5 26 17 39 13 14 20 28 17
31 -4 4 12 28 36 53 41 45 41 46 18 49 -13 2 -20 7 -14 10 10 6 41 48 96 129
12 18 29 35 39 38 9 3 40 30 69 60 29 30 59 55 66 55 7 0 13 4 13 9 0 5 15 14
33 21 17 7 43 23 57 35 34 30 223 135 242 135 8 0 26 9 40 19 32 26 138 68
201 80 29 6 75 17 102 25 28 8 57 12 65 10 8 -3 50 -10 93 -15z m-121 -1046
c19 -19 41 -143 26 -143 -5 0 -6 -5 -3 -11 8 -12 -54 -74 -63 -63 -4 3 -1 9 6
11 31 11 -1 116 -39 126 -20 5 -69 -33 -69 -53 0 -6 -4 -10 -10 -10 -13 0 -13
40 1 94 13 53 49 79 98 72 19 -3 43 -13 53 -23z m-587 -369 c22 -2 49 -3 61
-3 11 -1 49 -28 85 -61 83 -78 121 -87 292 -70 67 6 129 16 138 21 28 14 42
11 25 -6 -8 -8 -18 -15 -22 -15 -3 0 -22 -10 -42 -22 -32 -20 -33 -22 -17 -34
12 -9 23 -10 36 -4 10 6 25 10 34 10 20 0 10 -45 -16 -71 -11 -11 -19 -23 -19
-27 0 -5 -12 -15 -27 -23 -16 -8 -37 -22 -47 -31 -19 -17 -31 -22 -49 -19 -5
1 -6 -3 -2 -9 3 -5 2 -10 -3 -10 -6 0 -33 -22 -62 -50 -63 -61 -112 -78 -170
-61 -75 22 -163 25 -212 6 -44 -16 -47 -16 -84 3 -54 28 -104 76 -159 151 -46
62 -47 66 -42 121 2 32 8 64 13 71 5 8 9 19 10 25 1 6 14 37 29 69 l28 58 91
-8 c50 -5 109 -10 131 -11z m-123 -504 c21 -11 49 -20 63 -20 19 0 26 -5 24
-17 -5 -31 11 -63 31 -63 10 0 22 -5 25 -10 4 -6 25 -11 48 -10 23 0 65 -3 92
-8 29 -4 61 -3 78 2 32 12 37 32 5 21 -34 -11 -76 -7 -110 10 -20 10 -35 12
-43 5 -20 -17 -105 12 -105 36 0 7 10 23 22 34 20 19 31 20 94 15 40 -3 87
-10 104 -15 21 -6 39 -6 52 1 11 6 22 8 25 5 7 -7 56 19 72 38 8 9 18 16 24
16 6 0 -5 -16 -26 -36 -20 -20 -37 -43 -37 -51 0 -9 -9 -24 -20 -33 -20 -18
-20 -18 3 -33 20 -13 25 -13 43 2 11 9 24 29 28 44 7 28 62 97 77 97 18 0 9
-19 -12 -25 -19 -6 -19 -9 -6 -22 13 -13 20 -12 65 11 l51 26 26 -26 c15 -15
32 -23 43 -20 9 3 35 8 57 12 33 5 38 4 28 -7 -15 -15 -17 -49 -4 -49 5 0 11
3 13 8 4 9 65 40 103 51 17 5 39 12 50 17 18 7 17 6 -3 -16 -12 -13 -22 -28
-22 -32 0 -20 32 -19 67 2 20 12 57 30 82 39 25 10 54 22 63 26 16 6 16 3 1
-52 -9 -32 -17 -59 -18 -61 -2 -2 -63 -14 -136 -28 -74 -13 -147 -30 -164 -38
-16 -7 -46 -19 -65 -27 -37 -14 -87 -58 -92 -80 -4 -18 -49 -59 -66 -59 -6 0
-11 -3 -10 -7 1 -5 -12 -24 -30 -43 -18 -19 -32 -39 -32 -45 0 -5 -16 -21 -34
-35 -19 -14 -32 -29 -29 -33 3 -4 -5 -17 -18 -28 -18 -16 -23 -33 -28 -95 -4
-46 -2 -89 4 -108 6 -18 10 -37 8 -43 -3 -7 1 -21 7 -32 13 -25 -2 -27 -61
-11 -44 12 -57 39 -61 123 -2 31 -7 57 -11 57 -5 0 -7 6 -4 13 2 6 0 20 -5 30
-9 18 -17 49 -23 92 -2 11 -4 20 -5 20 -3 0 -12 41 -14 63 -1 19 -7 22 -41 22
-22 0 -59 5 -81 10 -23 5 -85 14 -138 18 -53 5 -99 12 -103 15 -5 6 11 61 32
110 6 14 2 17 -18 17 -14 0 -28 -6 -30 -12 -3 -7 -6 -3 -6 10 -1 12 10 49 23
82 14 33 23 60 21 60 -3 0 0 11 5 25 8 21 7 25 -10 25 -10 0 -22 5 -25 10 -3
6 3 10 14 10 26 0 26 7 4 34 -18 20 -18 20 7 3 14 -9 42 -26 62 -37z m-1222
-165 c3 -2 44 -11 90 -19 127 -24 259 -52 315 -69 28 -8 76 -16 109 -16 32 -1
77 -8 100 -16 67 -22 165 -43 261 -55 50 -7 101 -19 113 -27 13 -8 26 -12 30
-9 3 3 0 6 -7 6 -7 0 -10 4 -7 9 4 6 20 6 39 1 35 -10 128 -23 285 -41 l103
-11 -30 -29 c-29 -27 -31 -28 -64 -14 -19 8 -37 11 -41 8 -3 -4 -6 -2 -6 4 0
6 -9 9 -20 6 -11 -3 -20 -1 -20 5 0 5 -10 10 -22 10 -13 0 -52 5 -88 11 -36 7
-103 18 -150 26 -47 8 -123 21 -170 30 -47 8 -123 17 -170 20 -47 4 -104 11
-128 16 -25 5 -50 6 -59 1 -28 -16 7 -27 92 -28 44 0 94 -6 110 -13 33 -14
180 -38 325 -52 52 -5 113 -13 135 -19 40 -9 71 -15 135 -25 19 -3 60 -13 90
-21 37 -11 56 -12 58 -5 2 6 9 11 17 11 7 0 18 7 25 15 21 26 28 17 44 -62 9
-43 21 -98 26 -123 6 -25 12 -54 14 -65 7 -42 19 -80 27 -91 5 -6 13 -31 18
-55 11 -54 14 -65 41 -159 12 -41 26 -93 32 -115 5 -22 28 -86 50 -143 34 -88
38 -105 27 -120 -7 -9 -14 -18 -15 -20 -5 -9 -54 12 -54 23 0 8 -5 26 -12 42
-6 15 -13 39 -14 52 -2 13 -7 27 -11 30 -4 3 -8 11 -8 16 -1 20 -18 80 -25 90
-5 6 -11 31 -15 58 -4 26 -11 47 -15 47 -4 0 -10 18 -14 39 -3 22 -12 46 -19
53 -6 7 -13 27 -15 43 -2 17 -9 44 -17 60 -17 39 -28 67 -30 80 -1 6 -3 12 -5
15 -1 3 -4 14 -5 25 -2 23 -56 218 -61 224 -12 14 -12 -12 -1 -45 7 -21 13
-46 12 -54 -1 -8 5 -24 12 -35 7 -11 13 -33 13 -50 0 -16 6 -50 15 -75 8 -25
35 -112 60 -195 26 -82 52 -166 60 -185 7 -19 21 -60 31 -90 9 -30 22 -68 28
-85 18 -50 17 -58 -7 -50 -26 8 -169 47 -277 76 -41 11 -95 25 -119 30 -24 5
-49 13 -56 19 -6 5 -14 8 -16 5 -3 -2 -32 2 -64 9 -33 8 -80 17 -104 20 -25 3
-49 10 -55 16 -5 5 -23 10 -40 10 -16 0 -57 6 -90 14 -166 40 -353 68 -432 66
-45 -1 -52 2 -62 25 -7 14 -12 32 -12 40 0 8 -4 15 -9 15 -5 0 -15 16 -21 36
-7 20 -18 48 -26 62 -8 15 -14 33 -14 40 0 6 -4 12 -10 12 -5 0 -19 19 -30 42
-15 32 -17 44 -8 50 10 6 9 8 -3 8 -9 0 -25 17 -34 37 -10 21 -24 44 -32 51
-7 7 -13 19 -13 27 0 7 -3 15 -7 17 -8 3 -56 97 -57 110 -1 4 -9 17 -18 28
-10 11 -18 29 -18 40 0 12 -7 23 -15 26 -8 4 -15 17 -15 30 0 14 -7 27 -15 30
-21 8 -19 52 3 57 11 3 9 4 -4 2 -12 -1 -26 7 -33 17 -9 14 -8 18 1 19 7 0 5
4 -5 8 -10 4 -18 10 -18 14 1 4 -9 18 -21 32 -37 42 -32 53 21 49 l46 -4 -33
13 c-18 7 -30 16 -25 20 7 8 109 1 123 -8z m1870 -664 c0 -17 61 -68 108 -90
26 -12 54 -32 63 -44 l16 -22 -91 -2 c-84 -3 -90 -2 -71 13 15 12 33 14 74 10
30 -4 52 -4 49 0 -4 3 -34 9 -67 13 -45 5 -61 4 -61 -5 0 -12 -28 -29 -42 -26
-5 1 -8 -2 -8 -7 0 -13 27 -21 71 -21 28 0 39 -4 39 -15 0 -19 0 -19 39 1 18
9 34 14 37 11 3 -3 -8 -11 -25 -18 -16 -7 -27 -17 -25 -21 8 -12 -4 -10 -29 6
-19 13 -27 12 -65 -5 -41 -19 -42 -20 -27 -43 14 -21 14 -24 0 -29 -10 -4 -15
0 -15 12 0 20 -26 31 -72 31 -15 0 -30 5 -33 10 -9 14 42 32 98 34 49 1 67 16
19 16 -15 0 -33 5 -40 12 -14 14 -52 -4 -94 -45 -32 -32 -45 -29 -45 9 0 14
-7 30 -14 35 -7 4 -10 11 -6 15 4 4 3 12 -2 18 -6 7 -12 23 -14 36 -10 49 -20
85 -28 95 -4 6 12 11 46 12 48 2 55 -1 61 -20 4 -12 7 -24 7 -27 0 -3 7 -11
14 -18 7 -7 13 -20 13 -27 0 -8 9 -17 21 -20 22 -7 29 -4 33 17 8 46 66 133
66 99z m340 -48 c0 -9 3 -14 6 -11 3 4 20 0 37 -7 32 -13 98 -13 147 0 18 5
15 0 -14 -18 -25 -15 -35 -27 -27 -31 12 -8 -79 -78 -117 -90 -11 -4 -31 -17
-44 -29 -13 -12 -56 -38 -95 -57 -41 -20 -78 -45 -85 -58 -6 -13 -43 -39 -80
-57 -38 -19 -86 -53 -107 -76 -27 -30 -44 -40 -55 -36 -10 4 -14 12 -10 18 3
6 3 14 -2 18 -9 6 -30 48 -32 64 -1 4 -8 20 -17 37 -8 16 -15 31 -15 33 0 10
50 -6 61 -19 17 -21 34 -17 55 11 10 14 23 25 28 25 13 0 105 58 143 92 18 15
50 32 72 39 28 8 38 16 34 26 -3 8 0 19 8 25 10 7 8 8 -7 3 -12 -3 -26 0 -32
7 -8 10 5 14 61 15 44 2 74 8 79 15 4 7 3 15 -2 16 -13 5 -13 62 0 62 6 0 10
-7 10 -17z m1053 -244 c-16 -5 -15 -7 4 -17 12 -7 33 -12 47 -12 26 0 35 -21
18 -46 -16 -24 -167 -82 -180 -69 -3 2 -11 -2 -19 -10 -8 -8 -23 -15 -33 -15
-10 0 -22 -5 -25 -10 -4 -6 -18 -10 -33 -9 -15 0 -58 -6 -97 -14 -38 -9 -92
-18 -120 -21 -45 -5 -47 -5 -24 7 14 6 32 17 40 23 8 6 25 15 39 18 14 4 34
11 45 16 112 49 120 52 135 43 11 -7 19 -6 28 3 7 8 21 14 32 14 10 0 33 19
52 42 67 86 69 88 89 75 18 -11 18 -12 2 -18z m72 -416 c7 -40 31 -125 45
-158 38 -91 64 -143 82 -162 12 -13 18 -24 15 -24 -4 -1 -10 -2 -14 -3 -5 -1
-14 -5 -20 -9 -19 -12 -212 -5 -223 8 -5 6 -9 20 -9 30 -2 71 -7 112 -17 122
-7 7 -15 29 -19 49 -5 30 -3 41 14 57 11 12 24 17 28 13 5 -5 2 -11 -4 -13
-14 -5 -18 -43 -5 -43 4 0 18 7 30 16 17 12 21 24 20 55 -1 22 -7 43 -15 48
-10 5 -3 13 24 28 53 30 60 28 68 -14z"/>
<path d="M1708 3937 c-26 -10 -53 -58 -41 -71 4 -3 -1 -14 -10 -24 -10 -10
-14 -22 -10 -25 3 -4 2 -7 -4 -7 -17 0 -33 -46 -20 -59 18 -18 26 -13 52 38
l25 49 38 -18 c21 -10 44 -26 51 -34 21 -26 53 4 57 53 5 47 -21 81 -75 99
-19 7 -34 12 -35 11 -1 -1 -13 -6 -28 -12z"/>
<path d="M2265 3852 c-16 -9 -32 -20 -35 -23 -12 -15 -51 -29 -78 -29 -17 0
-32 -6 -36 -15 -3 -8 -1 -15 5 -15 6 0 7 -5 3 -12 -5 -7 -3 -8 5 -3 8 4 18 -1
27 -14 8 -11 24 -26 35 -32 17 -9 25 -7 40 10 11 12 27 21 35 21 8 0 25 6 37
13 12 7 29 12 37 11 8 -1 32 -2 53 -3 33 -1 40 -6 68 -51 29 -47 54 -70 77
-70 15 0 9 22 -14 55 -11 17 -26 49 -32 71 -7 23 -20 44 -30 48 -9 3 -35 17
-57 30 -47 30 -98 32 -140 8z"/>
<path d="M1645 2761 c-3 -6 1 -18 9 -27 9 -8 16 -19 16 -24 0 -16 62 -80 91
-96 59 -30 108 -22 199 30 90 52 128 82 117 92 -4 4 -69 6 -144 5 -127 -1
-223 7 -264 24 -10 3 -20 2 -24 -4z"/>
<path d="M1147 2031 c-6 -24 -3 -25 23 -11 13 7 21 6 30 -5 15 -18 6 -45 -15
-45 -8 0 -15 -9 -15 -19 0 -11 -5 -21 -10 -23 -12 -4 13 -73 31 -83 6 -5 3
-13 -11 -22 -12 -8 -19 -21 -16 -29 3 -8 2 -14 -2 -14 -13 0 -13 -59 -1 -83
45 -84 216 -133 286 -81 20 15 29 31 31 57 3 32 -3 42 -63 101 -60 60 -67 70
-69 109 -1 47 -29 79 -78 91 -16 3 -28 12 -28 19 0 23 -24 45 -56 52 -26 5
-32 3 -37 -14z m127 -91 c18 -7 27 -19 31 -47 11 -64 15 -71 50 -93 33 -21 75
-79 75 -105 0 -8 -5 -26 -12 -40 -10 -23 -17 -25 -72 -25 -50 0 -69 5 -104 28
-23 16 -40 31 -37 34 3 3 -1 11 -10 18 -20 17 -19 39 5 75 24 36 26 63 5 71
-8 4 -12 10 -9 15 3 5 1 9 -4 9 -20 0 -20 28 -1 49 22 23 44 26 83 11z"/>
<path d="M3980 2819 c0 -13 29 -66 48 -90 7 -9 15 -34 17 -56 2 -21 11 -52 19
-68 9 -17 16 -39 16 -50 0 -11 9 -53 19 -92 10 -40 15 -73 11 -73 -3 0 -5 -37
-2 -82 2 -46 5 -100 5 -121 1 -20 5 -37 10 -37 4 0 8 -15 8 -32 2 -32 2 -31 9
7 3 22 4 78 2 124 -3 61 0 86 9 92 11 6 10 20 -2 72 -9 35 -12 72 -9 82 6 16
-13 68 -30 85 -10 10 -5 41 9 49 17 11 8 40 -24 77 -14 16 -25 34 -25 40 0 15
-51 69 -72 77 -10 4 -18 2 -18 -4z"/>
<path d="M3196 455 c1 -65 4 -79 25 -101 21 -23 30 -25 74 -21 28 3 61 8 75
12 14 4 36 9 50 12 31 7 93 57 96 78 3 19 -12 20 -23 2 -23 -38 -66 -52 -164
-52 -54 0 -99 2 -102 5 -3 3 -2 24 3 48 6 33 4 42 -6 42 -8 0 -14 11 -14 25 0
14 -3 25 -7 25 -5 0 -8 -34 -7 -75z"/>
</g>
</svg>
